<svg width="330" height="140" xmlns="http://www.w3.org/2000/svg">
 <style type="text/css">.st0{fill-rule:evenodd;clip-rule:evenodd;fill:#9f9f9f;}
	.st1{fill-rule:evenodd;clip-rule:evenodd;fill:#9f9f9f;}</style>

 <g>
  <title>background</title>
  <rect x="-1" y="-1" width="332" height="142" id="canvas_background" fill="none"/>
 </g>
 <g>
  <title>Layer 1</title>
  <g stroke="null" id="Normal-Registered">
   <path stroke="null" id="Fill-1" class="st0" d="m294.225084,52.265629c0,-2.013507 1.36259,-3.665623 3.02324,-3.665623l22.29111,0c1.66065,0 3.02324,1.652116 3.02324,3.665623l0,13.26851c0,2.013516 -1.36259,3.665623 -3.02324,3.665623l-2.32066,0c-1.66066,0 -4.19422,0.800244 -5.66326,1.781187l-8.09037,5.446801c-1.44775,0.980935 -2.06518,0.283957 -1.38388,-1.548859l0.93678,-2.478165c0.68129,-1.832807 -0.10645,-3.330037 -1.76711,-3.330037l-4.02389,0c-1.66066,0 -3.02325,-1.652107 -3.02325,-3.665614l0,-13.139448"/>
   <path stroke="null" id="Fill-21" class="st1" d="m294.246374,86.779254c0.17032,0 0.31936,-0.025814 0.4471,-0.103257c0.10645,-0.077443 0.17032,-0.206514 0.17032,-0.464658c0,-0.129072 -0.02129,-0.232329 -0.06387,-0.283957c-0.04258,-0.077443 -0.10645,-0.129072 -0.17032,-0.154886c-0.06387,-0.025814 -0.14904,-0.051629 -0.2342,-0.077443c-0.08516,0 -0.17032,-0.025814 -0.23419,-0.025814l-0.53226,0l0,1.110015l0.61742,0zm0,-1.884436c0.46839,0 0.83033,0.129072 1.06452,0.3614c0.2342,0.23232 0.36194,0.59372 0.36194,1.032563c0,0.387215 -0.08516,0.671172 -0.25548,0.877687c-0.17033,0.206514 -0.38323,0.335586 -0.63872,0.3614l0.91549,1.832807l-0.8942,0l-0.87291,-1.806993l-0.29806,0l0,1.806993l-0.80904,0l0,-4.465858l1.42646,0zm-2.29937,3.381657c0.12774,0.3614 0.27678,0.671172 0.48968,0.955129c0.21291,0.258143 0.46839,0.490472 0.74517,0.645358c0.29806,0.154886 0.61742,0.232329 0.95807,0.232329c0.34064,0 0.66,-0.077443 0.95807,-0.232329c0.29806,-0.154886 0.55355,-0.3614 0.74516,-0.645358c0.21291,-0.258143 0.38323,-0.593729 0.48968,-0.955129c0.12775,-0.3614 0.17033,-0.748606 0.17033,-1.135821c0,-0.413029 -0.06387,-0.774429 -0.17033,-1.13583c-0.12774,-0.3614 -0.27677,-0.671172 -0.48968,-0.955129c-0.2129,-0.258134 -0.46839,-0.490463 -0.76645,-0.645349c-0.29807,-0.154886 -0.61743,-0.232329 -0.95807,-0.232329s-0.66001,0.077443 -0.95807,0.232329c-0.29807,0.154886 -0.55356,0.3614 -0.76646,0.645349c-0.2129,0.258143 -0.38323,0.593729 -0.48968,0.955129c-0.12774,0.3614 -0.17032,0.748615 -0.17032,1.13583c0.02129,0.413029 0.08516,0.77442 0.2129,1.135821zm-0.95807,-2.762122c0.17032,-0.516277 0.42581,-0.95512 0.72388,-1.316521c0.29806,-0.387215 0.66,-0.671172 1.08581,-0.877687c0.40452,-0.206514 0.85162,-0.335586 1.3413,-0.335586c0.46839,0 0.91549,0.103257 1.34129,0.309772c0.40452,0.206514 0.78775,0.516286 1.08582,0.877687c0.31935,0.387215 0.55355,0.826058 0.72387,1.316521c0.17033,0.490472 0.27678,1.032572 0.27678,1.626301s-0.08516,1.110006 -0.25549,1.626293c-0.17032,0.516286 -0.42581,0.929315 -0.72387,1.31653c-0.31936,0.3614 -0.6813,0.671163 -1.08581,0.877678c-0.40452,0.206514 -0.85162,0.309772 -1.3413,0.309772c-0.46839,0 -0.91549,-0.103257 -1.3413,-0.309772c-0.42581,-0.206514 -0.78775,-0.490463 -1.08581,-0.877678c-0.31936,-0.3614 -0.55356,-0.800244 -0.74517,-1.31653c-0.17032,-0.490472 -0.27678,-1.032563 -0.27678,-1.626293c0.02129,-0.5421 0.10646,-1.084201 0.27678,-1.600487z"/>
   <path stroke="null" id="Fill-19" class="st1" d="m282.962434,74.724007l-4.91809,0c-0.36194,0 -0.48968,-0.283957 -0.48968,-0.593729l0.04258,-0.77442c0.08516,-1.574673 1.32001,-2.736308 2.93808,-2.736308c1.57549,0 2.83163,1.135821 2.93808,2.684679l0.04258,0.77442c0,0.3614 -0.10645,0.645358 -0.55355,0.645358zm-2.61872,-10.351502c-5.32262,0 -9.11232,4.646558 -9.11232,9.964288l0,7.047289c0,5.911459 3.61938,10.015916 9.11232,10.015916c2.98066,0 5.13099,-1.264892 6.66391,-3.071894c0.72387,-0.877678 1.29871,-1.91025 1.80968,-2.942822c0.27678,-0.542092 0.12775,-1.161635 -0.12774,-1.316521l-4.47099,-2.736308c-0.27678,-0.154886 -0.55356,-0.051629 -0.6813,0.438843c-0.61742,1.91025 -1.66065,2.787936 -3.19357,2.787936c-1.66065,0 -2.85292,-1.368158 -2.85292,-3.123522l0,-1.213273c0,-0.387215 0.12775,-0.593729 0.53226,-0.593729l10.87942,0c0.27678,0 0.4471,-0.154877 0.4471,-0.542092l0,-4.749824c0.02129,-5.266101 -3.72583,-9.964288 -9.00586,-9.964288l0.00001,0z"/>
   <path stroke="null" id="Fill-18" class="st1" d="m260.862944,71.110013c1.40517,0 2.42711,1.084201 3.19357,3.278408c0.12774,0.387215 0.36194,0.490472 0.68129,0.335586l4.42842,-2.400722c0.27677,-0.154886 0.36194,-0.490472 0.23419,-0.929315c-0.40452,-1.135821 -0.85161,-2.194207 -1.44775,-3.071885c-1.49033,-2.400731 -3.70454,-3.76888 -7.1323,-3.76888c-5.59939,0 -8.98457,4.104457 -8.98457,10.015916l0,6.660074c0,5.911459 3.38518,9.964288 8.98457,9.964288c3.15099,0 5.23745,-1.135821 6.72778,-3.175151c0.76646,-1.032563 1.36259,-2.297465 1.85227,-3.717243c0.12775,-0.438843 0.04258,-0.722801 -0.23419,-0.877687l-4.42842,-2.45235c-0.31935,-0.154886 -0.53226,-0.051629 -0.68129,0.335586c-0.76646,2.194207 -1.80969,3.330037 -3.19357,3.330037c-1.66065,0 -2.74647,-1.419787 -2.74647,-3.175151l0,-7.17636c-0.02129,-1.755364 1.06453,-3.175151 2.74647,-3.175151"/>
   <path stroke="null" id="Fill-17" class="st1" d="m247.854484,65.146934l-5.3652,0c-0.31935,0 -0.4471,0.154886 -0.4471,0.542092l0,24.342822c0,0.387215 0.12775,0.5421 0.4471,0.5421l5.3652,0c0.25548,0 0.40451,-0.154886 0.40451,-0.5421l0,-24.342822c0,-0.387206 -0.19161,-0.542092 -0.40451,-0.542092"/>
   <path stroke="null" id="Fill-20" class="st1" d="m245.129304,54.408208c-1.74582,0 -3.17228,1.729559 -3.17228,3.846323c0,2.116764 1.42646,3.846323 3.17228,3.846323c1.74581,0 3.17228,-1.729559 3.17228,-3.846323c0,-2.116764 -1.40517,-3.846323 -3.17228,-3.846323"/>
   <path stroke="null" id="Fill-16" class="st1" d="m239.210554,65.146934l-5.72713,0c-0.23419,0 -0.40452,0.154886 -0.48968,0.438834l-3.38518,11.771289c-0.17032,0.593729 -0.4471,2.013516 -0.53226,2.736308l-0.12775,0c-0.08516,-0.722792 -0.31935,-2.013507 -0.53226,-2.736308l-3.51292,-11.822918c-0.08516,-0.283948 -0.21291,-0.387206 -0.4471,-0.387206l-5.72713,0c-0.40452,0 -0.53226,0.335577 -0.40452,0.77442l8.06908,24.291185c0.08516,0.258143 0.25548,0.387215 0.4471,0.387215l4.19422,0c0.23419,0 0.40452,-0.103257 0.48968,-0.387215l8.11166,-24.291185c0.12774,-0.438843 0,-0.77442 -0.42581,-0.77442"/>
   <path stroke="null" id="Fill-15" class="st1" d="m209.638114,81.125938c0,1.806993 -1.21355,3.175151 -2.78904,3.175151c-1.61808,0 -2.74647,-1.368158 -2.74647,-3.175151l0,-6.556817c0,-1.755364 1.12839,-3.071894 2.74647,-3.071894c1.61807,0 2.78904,1.31653 2.78904,3.071894l0,6.556817zm5.76972,-25.013985l-5.32262,0c-0.2129,0 -0.4471,0.154886 -0.4471,0.5421l0,7.615194c0,0.826058 0.12775,2.400722 0.12775,2.400722c-0.8942,-0.980935 -2.38453,-1.523035 -3.47035,-1.523035c-4.91809,0 -8.4736,4.0012 -8.4736,9.964288l0,5.524244c0,6.350302 3.06583,9.964288 8.58006,9.964288c1.25613,0 2.74646,-0.490463 3.70453,-1.471407c0.27678,-0.283957 0.59614,-0.1807 0.59614,0.258143l0,0.826058c0,0.206506 0.12774,0.387206 0.36194,0.387206l4.36454,0c0.27678,0 0.4471,-0.154877 0.4471,-0.542092l0,-33.403609c-0.02129,-0.3614 -0.19162,-0.5421 -0.46839,-0.5421z"/>
   <path stroke="null" id="Fill-14" class="st1" d="m186.090884,78.828473l-2.74647,0c-0.4471,0 -0.63872,-0.335586 -0.53226,-0.645358l0.93678,-4.440052c0.4471,-2.013507 0.80903,-4.440043 0.8942,-5.859821l0.19161,0c0.08516,1.419778 0.36194,3.8205 0.80904,5.859821l0.95807,4.440052c0.08516,0.309772 -0.10646,0.645358 -0.51097,0.645358zm1.08581,-22.329306c-0.08516,-0.283957 -0.2342,-0.387215 -0.4471,-0.387215l-4.0239,0c-0.27677,0 -0.36193,0.103257 -0.44709,0.387215l-8.87812,33.377795c-0.12775,0.438843 0.04258,0.722792 0.4471,0.722792l5.68455,0c0.23419,0 0.31935,-0.103248 0.40452,-0.387206l1.29871,-4.982153c0.08517,-0.283948 0.17033,-0.335586 0.48968,-0.335586l5.96133,0c0.31936,0 0.40452,0.051629 0.48968,0.335586l1.25614,4.982153c0.08516,0.258134 0.19161,0.387206 0.4471,0.387206l5.72713,0c0.4471,0 0.59613,-0.283948 0.4471,-0.722792l-8.85683,-33.377795z"/>
   <path stroke="null" id="Fill-13" class="st1" d="m157.178444,74.724007l-4.91809,0c-0.36194,0 -0.48968,-0.283957 -0.48968,-0.593729l0.04258,-0.77442c0.08516,-1.574673 1.32001,-2.736308 2.93808,-2.736308c1.57549,0 2.85292,1.135821 2.93808,2.684679l0.04258,0.77442c-0.02129,0.3614 -0.10645,0.645358 -0.55355,0.645358zm-2.61872,-10.351502c-5.32262,0 -9.11232,4.646558 -9.11232,9.964288l0,7.047289c0,5.911459 3.59809,10.015916 9.11232,10.015916c2.98066,0 5.15228,-1.264892 6.6852,-3.071894c0.72387,-0.877678 1.32001,-1.91025 1.80969,-2.942822c0.27677,-0.542092 0.12774,-1.161635 -0.12775,-1.316521l-4.47099,-2.736308c-0.27678,-0.154886 -0.53226,-0.051629 -0.6813,0.438843c-0.63871,1.91025 -1.66065,2.787936 -3.19356,2.787936c-1.66066,0 -2.85293,-1.368158 -2.85293,-3.123522l0,-1.213273c0,-0.387215 0.12775,-0.593729 0.55356,-0.593729l10.87942,0c0.27677,0 0.4471,-0.154877 0.4471,-0.542092l0,-4.749824c-0.02129,-5.266101 -3.76841,-9.964288 -9.04845,-9.964288l0.00001,0z"/>
   <path stroke="null" id="Fill-12" class="st1" d="m142.743524,65.250191c-0.31936,-0.051629 -0.6813,-0.103257 -1.17098,-0.103257c-1.70324,0 -3.3426,0.980935 -4.06647,2.065136c-0.2342,0.258143 -0.59614,0.232329 -0.59614,-0.258143l0,-1.264892c0,-0.387215 -0.12774,-0.5421 -0.4471,-0.5421l-4.27938,0c-0.27677,0 -0.4471,0.154886 -0.4471,0.5421l0,24.342813c0,0.387215 0.17033,0.5421 0.4471,0.5421l5.32261,0c0.27678,0 0.4471,-0.154886 0.4471,-0.5421l0,-14.507597c0,-1.91025 1.1284,-3.278408 2.70389,-3.278408c0.6813,0 1.25614,0.103257 1.80969,0.283957c0.40452,0.103257 0.68129,-0.051629 0.68129,-0.5421l0,-6.195416c0,-0.258134 -0.14903,-0.490463 -0.40452,-0.542092"/>
   <path stroke="null" id="Fill-11" class="st1" d="m118.813054,84.662489l-1.66066,0c-0.95807,0 -1.49033,-0.722801 -1.49033,-2.245845c0,-1.084192 0.63871,-1.858621 1.53291,-1.858621l3.83228,0c0.27678,0 0.36194,0.593729 0.36194,0.774429c-0.10645,2.013507 -1.36259,3.330037 -2.57614,3.330037zm-0.12774,-20.109284c-2.78905,0 -4.87552,1.084192 -6.40843,2.787936c-0.85162,0.929306 -1.53291,2.013507 -2.06517,3.22678c-0.27678,0.542092 -0.12775,1.161635 0.12774,1.316521l4.47099,2.736308c0.27678,0.154886 0.53226,0.051629 0.6813,-0.438843c0.63871,-1.91025 1.66065,-2.787936 3.19356,-2.787936c1.66066,0 2.70389,1.368158 2.70389,3.123522l0,0.283957c0,0.387215 -0.12774,0.593729 -0.4471,0.593729l-3.98131,0c-3.96003,0 -7.17488,2.633051 -7.17488,7.22798l0,0.5421c0,4.646558 2.8955,7.434494 6.77036,7.434494l1.57549,0c1.21356,0 2.57615,-0.490463 3.51293,-1.419778c0.17032,-0.154886 0.40452,-0.103257 0.4471,0.051629l0.12774,0.929315c0.04258,0.283948 0.2342,0.438834 0.48968,0.438834l4.42841,0c0.27678,0 0.4471,-0.154886 0.4471,-0.542092l0,-15.488541c0.02129,-5.911459 -3.40647,-10.015916 -8.89941,-10.015916l0.00001,0z"/>
   <path stroke="null" id="Fill-10" class="st1" d="m107.976214,65.146934l-5.45036,0c-0.27677,0 -0.4471,0.154886 -0.48968,0.438834l-2.02259,10.274068c-0.2342,1.161635 -0.40452,2.787936 -0.4471,3.949571l-0.14903,0c-0.04258,-1.161635 -0.2342,-2.633051 -0.48968,-3.949571l-2.04389,-10.274068c-0.04258,-0.283948 -0.23419,-0.438834 -0.48968,-0.438834l-4.47099,0c-0.27678,0 -0.40452,0.154886 -0.4471,0.438834l-1.98001,10.22244c-0.2342,1.135821 -0.40452,2.633051 -0.48968,3.717243l-0.12775,0c-0.04258,-1.084192 -0.2129,-2.581422 -0.44709,-3.717243l-2.10776,-10.22244c-0.04258,-0.283948 -0.17032,-0.438834 -0.4471,-0.438834l-5.59939,0c-0.40452,0 -0.55355,0.283948 -0.40452,0.722792l6.36585,24.342822c0.08516,0.258143 0.23419,0.387215 0.4471,0.387215l3.98131,0c0.27678,0 0.40452,-0.103257 0.4471,-0.387215l2.49098,-11.332446c0.27678,-1.264901 0.48968,-3.381666 0.48968,-3.381666l0.12775,0c0,0 0.23419,2.142579 0.48968,3.381666l2.42711,11.255003c0.04258,0.283957 0.17032,0.438843 0.4471,0.438843l3.91744,0c0.2342,0 0.36194,-0.103257 0.4471,-0.387215l6.45101,-24.342822c0.12774,-0.3614 -0.02129,-0.696977 -0.42581,-0.696977"/>
   <path stroke="null" id="Fill-9" class="st1" d="m77.552154,65.146934l-3.02324,0c-0.40452,0 -0.53226,-0.154886 -0.53226,-0.5421l0,-3.459109c0,-0.387215 -0.08516,-0.490472 -0.40452,-0.490472l-2.85292,0c-0.17033,0 -0.40452,0.103257 -0.53226,0.283957l-5.64197,6.840774l0,3.717243c0,0.387215 0.12774,0.490472 0.4471,0.490472l2.25678,0c0.40452,0 0.53226,0.232329 0.53226,0.593729l0,8.54451c0,6.556817 3.38519,9.964288 7.66457,9.964288l1.89485,0c0.40452,0 0.59613,-0.206514 0.59613,-0.59372l0,-5.627502c0,-0.335586 -0.12774,-0.5421 -0.4471,-0.5421l-0.76645,0c-1.85227,0 -2.74647,-1.368158 -2.74647,-3.717252l0,-8.028223c0,-0.387215 0.12774,-0.593729 0.53226,-0.593729l3.02324,0c0.31936,0 0.40452,-0.103257 0.40452,-0.490472l0,-5.808202c0,-0.387206 -0.08516,-0.542092 -0.40452,-0.542092"/>
   <path stroke="null" id="Fill-8" class="st1" d="m64.075304,55.853809c-0.76646,-0.206514 -2.0226,-0.387215 -3.19357,-0.387215c-6.6852,0 -9.19748,5.627502 -9.19748,10.067545l0,1.368158c0,0.387215 -0.12774,0.5421 -0.48968,0.5421l-1.04323,0c-0.27677,0 -0.4471,0.154886 -0.4471,0.5421l0,5.756564c0,0.387215 0.17033,0.5421 0.4471,0.5421l1.04323,0c0.40452,0 0.48968,0.154886 0.48968,0.5421l0,15.204584c0,0.387215 0.12775,0.542092 0.4471,0.542092l5.32262,0c0.31935,0 0.4471,-0.154877 0.4471,-0.542092l0,-15.204584c0,-0.387215 0.12774,-0.5421 0.48968,-0.5421l2.91679,0c0.31935,0 0.4471,-0.154886 0.4471,-0.5421l0,-5.756564c0,-0.387215 -0.12775,-0.5421 -0.4471,-0.5421l-2.93808,0c-0.36194,0 -0.48968,-0.154886 -0.48968,-0.5421l0,-1.471416c0,-1.91025 1.12839,-3.123522 2.83163,-3.123522c0.59613,0 1.21355,0.103257 1.70323,0.283957c0.31936,0.103257 0.48968,0 0.59613,-0.335586l1.40517,-5.627493c0.10646,-0.387215 0.02129,-0.671172 -0.34064,-0.774429"/>
   <path stroke="null" id="Fill-7" class="st1" d="m40.740964,81.43571c0,1.755364 -1.17097,3.175151 -2.74647,3.175151c-1.66065,0 -2.85292,-1.419787 -2.85292,-3.175151l0,-7.150546c0,-1.703735 1.17098,-3.175151 2.85292,-3.175151c1.5755,0 2.74647,1.419787 2.74647,3.175151l0,7.150546zm-2.74647,-16.882505c-5.51422,0 -9.11231,4.104457 -9.11231,10.015916l0,6.660074c0,5.911459 3.59809,9.964288 9.11231,9.964288c5.40778,0 9.02716,-4.0012 9.02716,-9.964288l0,-6.660074c0,-5.988902 -3.61938,-10.015916 -9.02716,-10.015916z"/>
   <path stroke="null" id="Fill-4" class="st1" d="m19.195024,70.000006c-2.49098,-1.13583 -5.15228,-1.961879 -5.15228,-4.414229c0,-1.961888 1.21355,-3.278408 2.78904,-3.278408l0.6813,0c1.53291,0 2.57614,0.877678 3.21486,2.787936c0.12774,0.490472 0.40452,0.593729 0.68129,0.438843l4.471,-2.736308c0.27677,-0.154886 0.40451,-0.774429 0.12774,-1.31653c-0.36194,-0.826058 -0.80904,-1.626293 -1.36259,-2.349093c-1.57549,-2.142579 -3.83228,-3.665623 -7.1323,-3.665623l-0.6813,0c-5.64197,0 -9.11231,4.052838 -9.11231,10.222431c0,6.298674 3.3426,8.647767 7.49424,10.661283c2.70389,1.316521 5.04584,2.013507 5.04584,4.749815c0,2.245836 -1.44775,3.22678 -3.06583,3.22678l-1.12839,0c-1.53291,0 -2.57615,-0.877687 -3.19357,-2.787936c-0.12774,-0.490472 -0.40452,-0.593729 -0.68129,-0.438843l-4.471,2.736308c-0.27677,0.154886 -0.40452,0.774429 -0.12774,1.316521c0.40452,0.877687 0.8942,1.755373 1.49033,2.529802c1.53291,2.065136 3.7897,3.484914 6.98327,3.484914l1.44775,0c5.72713,0 9.06973,-4.0012 9.06973,-10.170802c0,-6.376117 -3.1084,-8.957539 -7.38779,-10.99686"/>
  </g>
 </g>
</svg>